<svg width="90" height="42" viewBox="0 0 90 42" fill="none" xmlns="http://www.w3.org/2000/svg">
<path d="M14.5 19.7417L31 27.7917M31 18.2083L14.5 26.2583M16 14.375C17.6569 14.375 19 15.6622 19 17.25C19 18.8378 17.6569 20.125 16 20.125C14.3431 20.125 13 18.8378 13 17.25C13 15.6622 14.3431 14.375 16 14.375ZM16 25.875C17.6569 25.875 19 27.1622 19 28.75C19 30.3378 17.6569 31.625 16 31.625C14.3431 31.625 13 30.3378 13 28.75C13 27.1622 14.3431 25.875 16 25.875Z" stroke="#2D55FB" stroke-width="2" stroke-linecap="round" stroke-linejoin="round"/>
<path d="M45.832 31.336C44.936 31.336 44.096 31.2053 43.312 30.944C42.528 30.664 41.8373 30.272 41.24 29.768C40.6427 29.2453 40.176 28.6107 39.84 27.864L43.004 26.408C43.284 26.856 43.6667 27.248 44.152 27.584C44.6373 27.9013 45.1973 28.06 45.832 28.06C46.448 28.06 46.924 27.976 47.26 27.808C47.596 27.6213 47.764 27.36 47.764 27.024C47.764 26.688 47.624 26.4453 47.344 26.296C47.0827 26.128 46.7187 25.988 46.252 25.876L44.964 25.54C43.62 25.1853 42.556 24.6253 41.772 23.86C41.0067 23.076 40.624 22.18 40.624 21.172C40.624 19.7347 41.0813 18.624 41.996 17.84C42.9293 17.056 44.2453 16.664 45.944 16.664C46.8213 16.664 47.6333 16.7947 48.38 17.056C49.1453 17.3173 49.7987 17.6813 50.34 18.148C50.8813 18.6147 51.2547 19.156 51.46 19.772L48.408 21.172C48.2773 20.7987 47.96 20.5 47.456 20.276C46.952 20.0333 46.448 19.912 45.944 19.912C45.44 19.912 45.048 20.024 44.768 20.248C44.5067 20.4533 44.376 20.7427 44.376 21.116C44.376 21.3587 44.5067 21.564 44.768 21.732C45.0293 21.8813 45.4027 22.012 45.888 22.124L47.708 22.572C48.6227 22.796 49.3507 23.16 49.892 23.664C50.452 24.1493 50.8533 24.7 51.096 25.316C51.3573 25.9133 51.488 26.5013 51.488 27.08C51.488 27.92 51.236 28.6667 50.732 29.32C50.2467 29.9547 49.5747 30.4493 48.716 30.804C47.876 31.1587 46.9147 31.336 45.832 31.336ZM59.827 31.336C58.371 31.336 57.0736 31.028 55.935 30.412C54.7963 29.7773 53.9096 28.9093 53.275 27.808C52.6403 26.688 52.323 25.4187 52.323 24C52.323 22.5627 52.6403 21.2933 53.275 20.192C53.9096 19.0907 54.787 18.232 55.907 17.616C57.027 16.9813 58.315 16.664 59.771 16.664C61.171 16.664 62.4496 17.0093 63.607 17.7C64.7643 18.3907 65.6043 19.3893 66.127 20.696L62.655 21.928C62.3936 21.3867 61.983 20.9573 61.423 20.64C60.8816 20.304 60.275 20.136 59.603 20.136C58.9123 20.136 58.3056 20.304 57.783 20.64C57.2603 20.9573 56.8496 21.4053 56.551 21.984C56.2523 22.5627 56.103 23.2347 56.103 24C56.103 24.7653 56.2523 25.4373 56.551 26.016C56.8496 26.576 57.2696 27.024 57.811 27.36C58.3523 27.696 58.9683 27.864 59.659 27.864C60.331 27.864 60.9376 27.6867 61.479 27.332C62.039 26.9773 62.4496 26.5107 62.711 25.932L66.211 27.164C65.6696 28.4893 64.8203 29.516 63.663 30.244C62.5243 30.972 61.2456 31.336 59.827 31.336ZM68.0281 31V17H71.7241V31H68.0281ZM69.8761 14.732C69.3161 14.732 68.8215 14.5267 68.3921 14.116C67.9628 13.6867 67.7481 13.1827 67.7481 12.604C67.7481 12.0253 67.9628 11.5307 68.3921 11.12C68.8215 10.6907 69.3161 10.476 69.8761 10.476C70.4548 10.476 70.9495 10.6907 71.3601 11.12C71.7895 11.5307 72.0041 12.0253 72.0041 12.604C72.0041 13.1827 71.7895 13.6867 71.3601 14.116C70.9495 14.5267 70.4548 14.732 69.8761 14.732ZM76.4482 31.42C75.8322 31.42 75.3002 31.196 74.8522 30.748C74.4229 30.3 74.2082 29.768 74.2082 29.152C74.2082 28.5547 74.4229 28.032 74.8522 27.584C75.3002 27.136 75.8322 26.912 76.4482 26.912C77.0642 26.912 77.5869 27.136 78.0162 27.584C78.4642 28.032 78.6883 28.5547 78.6883 29.152C78.6883 29.768 78.4642 30.3 78.0162 30.748C77.5869 31.196 77.0642 31.42 76.4482 31.42Z" fill="white"/>
</svg>
